<svg width="192" height="192" viewBox="0 0 50.8 50.8" xmlns="http://www.w3.org/2000/svg"><path style="fill:#1f2937;fill-opacity:1;stroke:none;stroke-width:1.05833" d="M0 0h50.8v50.8H0z"/><circle style="fill:none;fill-opacity:1;stroke:#818cff;stroke-width:1.05833;stroke-dasharray:none;stroke-opacity:1" cx="25.4" cy="25.4" r="22.52"/><path d="M98.17 443.66c0 .57-.22 1.12-.81 1.86a9.36 9.36 0 0 1-1.85 1.76v-3.43c.16-.4.4-.72.7-.97.3-.25.62-.37.94-.37.52 0 .85.3 1 .88l.02.27zm-.08-2.4c-.43 0-.87.12-1.31.36a5.4 5.4 0 0 0-1.27.95v-7.27h-.56v12.45c0 .35.1.53.28.53.12 0 .25-.1.46-.22.58-.34.95-.58 1.34-.82.45-.28.96-.6 1.63-1.25.46-.46.8-.93 1-1.4.21-.48.32-.95.32-1.41 0-.69-.19-1.18-.55-1.47-.42-.3-.86-.45-1.34-.45z" style="fill:#fff;fill-opacity:1;stroke:none;stroke-opacity:1" transform="translate(-206.2 -1056.6) scale(2.44914)"/><path d="M98.17 443.66c0 .57-.22 1.12-.81 1.86a9.36 9.36 0 0 1-1.85 1.76v-3.43c.16-.4.4-.72.7-.97.3-.25.62-.37.94-.37.52 0 .85.3 1 .88l.02.27zm-.08-2.4c-.43 0-.87.12-1.31.36a5.4 5.4 0 0 0-1.27.95v-7.27h-.56v12.45c0 .35.1.53.28.53.12 0 .25-.1.46-.22.58-.34.95-.58 1.34-.82.45-.28.96-.6 1.63-1.25.46-.46.8-.93 1-1.4.21-.48.32-.95.32-1.41 0-.69-.19-1.18-.55-1.47-.42-.3-.86-.45-1.34-.45z" style="fill:#fff;fill-opacity:1;stroke:none;stroke-opacity:1" transform="matrix(-2.44914 0 0 2.44914 257 -1056.6)"/></svg>